<svg width="571" height="512" viewBox="0 0 571 512" fill="none" xmlns="http://www.w3.org/2000/svg">
<path d="M286 -2L571 198L286 398L1 198L286 -2Z" fill="#E6E6E6"/>
<path d="M563.857 193.675H563.657L448.857 242.695L291.787 309.765C291.173 310.023 290.515 310.158 289.849 310.161C289.183 310.165 288.523 310.037 287.907 309.785L125.857 242.555L8.23669 193.755L8.05701 193.675H7.85681C6.00093 193.677 4.22164 194.415 2.90933 195.727C1.59702 197.04 0.858871 198.819 0.856812 200.675V504.675C0.858873 506.531 1.59702 508.31 2.90933 509.622C4.22164 510.935 6.00093 511.673 7.85681 511.675H563.857C565.713 511.673 567.492 510.935 568.804 509.622C570.117 508.31 570.855 506.531 570.857 504.675V200.675C570.855 198.819 570.117 197.04 568.804 195.727C567.492 194.415 565.713 193.677 563.857 193.675V193.675Z" fill="white"/>
<path d="M565.856 195.675C565.652 195.675 565.453 195.612 565.285 195.496L288.726 2.89208C287.885 2.30868 286.885 1.9969 285.861 1.99865C284.837 2.0004 283.838 2.31558 282.998 2.90185L8.43123 195.494C8.32369 195.569 8.20235 195.623 8.07414 195.651C7.94593 195.68 7.81334 195.683 7.68397 195.66C7.5546 195.637 7.43098 195.589 7.32014 195.519C7.20931 195.448 7.11346 195.357 7.03804 195.249C6.96262 195.142 6.9091 195.02 6.88057 194.892C6.85204 194.764 6.84904 194.631 6.87175 194.502C6.89445 194.373 6.94241 194.249 7.01289 194.138C7.08338 194.027 7.17501 193.931 7.28255 193.856L281.85 1.26415C283.025 0.443505 284.424 0.00236562 285.857 9.48758e-06C287.291 -0.00234665 288.691 0.434189 289.87 1.25097L566.428 193.854C566.603 193.976 566.734 194.15 566.803 194.352C566.872 194.553 566.875 194.771 566.811 194.974C566.747 195.178 566.62 195.355 566.448 195.481C566.276 195.607 566.069 195.675 565.856 195.675L565.856 195.675Z" fill="#3F3D56"/>
<path d="M24.121 202.502L286.132 8.31897L550.132 216.319L299.632 364.819L163.632 333.819L24.121 202.502Z" fill="#E6E6E6"/>
<path d="M289.817 310.659C288.833 310.661 287.858 310.47 286.948 310.097L125.357 243.049V33.1746C125.359 31.3188 126.097 29.5396 127.41 28.2273C128.722 26.915 130.501 26.1768 132.357 26.1746H442.357C444.213 26.1768 445.992 26.915 447.304 28.2273C448.617 29.5396 449.355 31.3188 449.357 33.1746V243.195L449.053 243.325L292.773 310.065C291.837 310.458 290.832 310.66 289.817 310.659V310.659Z" fill="white"/>
<path d="M160.336 432.086C158.579 414.859 145.747 405.016 128.344 405.016C109.149 405.016 94.2075 418.199 94.2075 442C94.2075 465.695 108.797 478.984 128.344 478.984C148.102 478.984 159.036 465.555 160.336 452.793L142.758 452.688C141.528 459.613 136.325 463.727 128.696 463.727C118.43 463.727 111.961 456.309 111.961 442C111.961 428.254 118.29 420.273 128.801 420.273C136.711 420.273 141.879 424.879 142.758 432.086H160.336ZM195.501 479.02C212.482 479.02 222.783 467.805 222.783 451.176C222.783 434.512 212.482 423.297 195.501 423.297C178.521 423.297 168.22 434.512 168.22 451.176C168.22 467.805 178.521 479.02 195.501 479.02ZM195.607 466.047C189.244 466.047 185.728 460 185.728 451.07C185.728 442.105 189.244 436.023 195.607 436.023C201.759 436.023 205.275 442.105 205.275 451.07C205.275 460 201.759 466.047 195.607 466.047ZM248.781 447.203C248.816 441.051 252.402 437.395 257.851 437.395C263.3 437.395 266.535 440.98 266.5 446.957V478H283.691V443.582C283.726 431.418 276.308 423.297 264.953 423.297C256.972 423.297 250.925 427.34 248.535 433.914H247.937V424H231.589V478H248.781V447.203ZM324.815 424H315.077V411.062H297.885V424H290.749V436.656H297.885V462.918C297.78 473.852 304.881 479.336 317.01 478.773C321.159 478.563 324.147 477.719 325.799 477.227L323.198 464.816C322.459 464.992 320.737 465.344 319.436 465.344C316.659 465.344 315.077 464.219 315.077 461.02V436.656H324.815V424ZM348.809 478.914C356.333 478.914 361.536 475.996 364.489 470.477H364.911V478H381.083V441.297C381.083 429.871 370.922 423.297 357.176 423.297C342.657 423.297 334.43 430.609 333.059 440.453L348.915 441.016C349.653 437.57 352.5 435.461 357.036 435.461C361.254 435.461 363.926 437.5 363.926 441.121V441.297C363.926 444.602 360.34 445.305 351.129 446.113C340.196 447.027 331.055 451.07 331.055 463.023C331.055 473.711 338.473 478.914 348.809 478.914ZM354.118 467.664C350.145 467.664 347.333 465.766 347.333 462.18C347.333 458.699 350.075 456.59 354.961 455.852C358.161 455.395 362.098 454.691 364.032 453.672V458.805C364.032 464.078 359.602 467.664 354.118 467.664ZM416.801 479.02C431.989 479.02 441.411 470.195 441.868 456.836H425.801C425.168 462.566 421.723 465.695 417.012 465.695C410.965 465.695 407.028 460.598 407.028 451C407.028 441.473 411 436.375 417.012 436.375C421.934 436.375 425.133 439.715 425.801 445.234H441.868C441.481 431.945 431.778 423.297 416.766 423.297C399.786 423.297 389.52 434.617 389.52 451.176C389.52 467.664 399.715 479.02 416.801 479.02ZM481.146 424H471.408V411.062H454.216V424H447.08V436.656H454.216V462.918C454.111 473.852 461.212 479.336 473.341 478.773C477.49 478.563 480.478 477.719 482.13 477.227L479.529 464.816C478.791 464.992 477.068 465.344 475.767 465.344C472.99 465.344 471.408 464.219 471.408 461.02V436.656H481.146V424Z" fill="#5393FE"/>
<path d="M289.817 311.159C288.768 311.16 287.729 310.957 286.757 310.56L124.857 243.383V33.1746C124.859 31.1862 125.65 29.2798 127.056 27.8738C128.462 26.4678 130.369 25.6769 132.357 25.6746H442.357C444.345 25.6769 446.252 26.4678 447.658 27.8738C449.064 29.2798 449.855 31.1862 449.857 33.1746V243.525L292.969 310.524C291.971 310.944 290.9 311.16 289.817 311.159V311.159ZM126.857 242.047L287.52 308.711C289.019 309.319 290.697 309.309 292.188 308.683L447.857 242.205V33.1746C447.855 31.7165 447.275 30.3185 446.244 29.2874C445.213 28.2564 443.815 27.6763 442.357 27.6746H132.357C130.899 27.6764 129.501 28.2564 128.47 29.2874C127.439 30.3185 126.859 31.7165 126.857 33.1746V242.047Z" fill="#3F3D56"/>
<path d="M563.857 193.675H563.657L448.857 242.695L291.787 309.765C291.173 310.023 290.515 310.158 289.849 310.161C289.183 310.165 288.523 310.037 287.907 309.785L125.857 242.555L8.23669 193.755L8.05701 193.675H7.85681C6.00093 193.677 4.22164 194.415 2.90933 195.727C1.59702 197.04 0.858871 198.819 0.856812 200.675V504.675C0.858873 506.531 1.59702 508.31 2.90933 509.622C4.22164 510.935 6.00093 511.673 7.85681 511.675H563.857C565.713 511.673 567.492 510.935 568.804 509.622C570.117 508.31 570.855 506.531 570.857 504.675V200.675C570.855 198.819 570.117 197.04 568.804 195.727C567.492 194.415 565.713 193.677 563.857 193.675V193.675ZM568.857 504.675C568.856 506.001 568.329 507.272 567.392 508.21C566.454 509.147 565.183 509.674 563.857 509.675H7.85681C6.53089 509.674 5.25944 509.147 4.32187 508.21C3.3843 507.272 2.85734 506.001 2.85681 504.675V200.675C2.85862 199.382 3.36017 198.14 4.25659 197.208C5.15301 196.276 6.37491 195.727 7.66687 195.675L125.857 244.715L287.137 311.635C288.883 312.345 290.839 312.334 292.577 311.605L448.857 244.865L564.057 195.675C565.347 195.73 566.565 196.281 567.459 197.213C568.353 198.144 568.854 199.384 568.857 200.675V504.675Z" fill="#3F3D56"/>
<path d="M264.66 104.626H154.66C152.538 104.626 150.503 103.783 149.003 102.283C147.503 100.783 146.66 98.748 146.66 96.6262C146.66 94.5045 147.503 92.4697 149.003 90.9694C150.503 89.4691 152.538 88.6262 154.66 88.6262H264.66C266.782 88.6262 268.817 89.4691 270.317 90.9694C271.817 92.4697 272.66 94.5045 272.66 96.6262C272.66 98.748 271.817 100.783 270.317 102.283C268.817 103.783 266.782 104.626 264.66 104.626Z" fill="#5393FE"/>
<path d="M207.66 70.6262H154.66C152.538 70.6262 150.503 69.7834 149.003 68.2831C147.503 66.7828 146.66 64.748 146.66 62.6262C146.66 60.5045 147.503 58.4697 149.003 56.9694C150.503 55.4691 152.538 54.6262 154.66 54.6262H207.66C209.782 54.6262 211.817 55.4691 213.317 56.9694C214.817 58.4697 215.66 60.5045 215.66 62.6262C215.66 64.748 214.817 66.7828 213.317 68.2831C211.817 69.7834 209.782 70.6262 207.66 70.6262Z" fill="#5393FE"/>
<path d="M369.629 184.626H201.629C199.507 184.626 197.472 183.783 195.972 182.283C194.471 180.783 193.629 178.748 193.629 176.626C193.629 174.504 194.471 172.47 195.972 170.969C197.472 169.469 199.507 168.626 201.629 168.626H369.629C371.75 168.626 373.785 169.469 375.285 170.969C376.786 172.47 377.629 174.504 377.629 176.626C377.629 178.748 376.786 180.783 375.285 182.283C373.785 183.783 371.75 184.626 369.629 184.626Z" fill="#CCCCCC"/>
<path d="M369.629 221.626H201.629C199.507 221.626 197.472 220.783 195.972 219.283C194.471 217.783 193.629 215.748 193.629 213.626C193.629 211.504 194.471 209.47 195.972 207.969C197.472 206.469 199.507 205.626 201.629 205.626H369.629C371.75 205.626 373.785 206.469 375.285 207.969C376.786 209.47 377.629 211.504 377.629 213.626C377.629 215.748 376.786 217.783 375.285 219.283C373.785 220.783 371.75 221.626 369.629 221.626Z" fill="#CCCCCC"/>
</svg>
